<svg xmlns="http://www.w3.org/2000/svg" width="159" height="56" fill="none"><rect width="159" height="56" fill="#e5ecf4" rx="4"/><g fill="#495567" clip-path="url(#a)"><path d="M60.5 40h-4.76l-.68 3H52.3l3.34-14h4.96l3.34 14h-2.76l-.68-3zm-4.2-2.52h3.62l-1.62-7.16h-.36l-1.64 7.16zM66.913 47h-2.52V33.08h2.52v1.44h.36a2.87 2.87 0 0 1 1.16-1.26c.507-.307 1.153-.46 1.94-.46a4.11 4.11 0 0 1 1.66.34 3.79 3.79 0 0 1 1.38 1c.4.427.713.953.94 1.58.24.627.36 1.34.36 2.14v.36c0 .813-.113 1.533-.34 2.16s-.533 1.16-.92 1.6a3.903 3.903 0 0 1-1.38.98c-.52.213-1.087.32-1.7.32a4.42 4.42 0 0 1-1.18-.14 3.31 3.31 0 0 1-.88-.38 3.06 3.06 0 0 1-.62-.54 4.99 4.99 0 0 1-.42-.66h-.36V47zm2.64-6.12c.787 0 1.42-.24 1.9-.72.493-.493.74-1.16.74-2v-.24c0-.84-.247-1.5-.74-1.98-.48-.493-1.113-.74-1.9-.74s-1.427.253-1.92.76c-.48.493-.72 1.147-.72 1.96v.24c0 .813.24 1.473.72 1.98.493.493 1.133.74 1.92.74zM78.267 47h-2.52V33.08h2.52v1.44h.36a2.87 2.87 0 0 1 1.16-1.26c.507-.307 1.153-.46 1.94-.46a4.11 4.11 0 0 1 1.66.34 3.79 3.79 0 0 1 1.38 1c.4.427.713.953.94 1.58.24.627.36 1.34.36 2.14v.36c0 .813-.113 1.533-.34 2.16s-.533 1.16-.92 1.6a3.9 3.9 0 0 1-1.38.98c-.52.213-1.087.32-1.7.32-.453 0-.847-.047-1.18-.14s-.627-.22-.88-.38a3.06 3.06 0 0 1-.62-.54 4.99 4.99 0 0 1-.42-.66h-.36V47zm2.64-6.12c.787 0 1.42-.24 1.9-.72.493-.493.74-1.16.74-2v-.24c0-.84-.247-1.5-.74-1.98-.48-.493-1.113-.74-1.9-.74s-1.427.253-1.92.76c-.48.493-.72 1.147-.72 1.96v.24c0 .813.24 1.473.72 1.98.493.493 1.133.74 1.92.74zm13.673-7.6c0-.56-.22-1.047-.66-1.46-.427-.413-1.033-.62-1.82-.62-.667 0-1.193.14-1.58.42-.387.267-.58.633-.58 1.1a1.54 1.54 0 0 0 .14.66c.093.187.253.36.48.52.24.147.547.28.92.4.387.12.873.233 1.46.34 1.467.267 2.587.713 3.36 1.34s1.16 1.553 1.16 2.78V39a4.29 4.29 0 0 1-.36 1.78 3.65 3.65 0 0 1-1 1.34c-.44.373-.973.66-1.6.86s-1.333.3-2.12.3c-.92 0-1.733-.127-2.44-.38-.693-.267-1.273-.627-1.74-1.08a4.68 4.68 0 0 1-1.06-1.62 5.66 5.66 0 0 1-.36-2.04v-.6h2.64v.48c0 .84.24 1.513.72 2.02.493.493 1.253.74 2.28.74.8 0 1.393-.173 1.78-.52s.58-.76.58-1.24c0-.227-.04-.44-.12-.64a1.3 1.3 0 0 0-.42-.56c-.2-.173-.473-.327-.82-.46s-.787-.247-1.32-.34a14.263 14.263 0 0 1-1.94-.46c-.587-.2-1.1-.46-1.54-.78a3.35 3.35 0 0 1-1-1.2c-.24-.48-.36-1.067-.36-1.76v-.12a3.65 3.65 0 0 1 .34-1.58 4.01 4.01 0 0 1 .98-1.28c.427-.36.933-.64 1.52-.84a6.3 6.3 0 0 1 2-.3c.827 0 1.56.12 2.2.36.64.227 1.173.54 1.6.94.44.4.767.86.98 1.38a4.06 4.06 0 0 1 .34 1.64v.72h-2.64v-.48zm4.113-.2h2.94V29h2.52v4.08h3.58v2.4h-3.58V40c0 .4.18.6.54.6h2.68V43h-4.2c-.453 0-.827-.147-1.12-.44-.28-.293-.42-.667-.42-1.12v-5.96h-2.94v-2.4zm21.353 5.08c0 .827-.14 1.56-.42 2.2a4.79 4.79 0 0 1-1.14 1.6 5.06 5.06 0 0 1-1.66.98 5.55 5.55 0 0 1-1.94.34 5.72 5.72 0 0 1-1.96-.34 5.116 5.116 0 0 1-1.64-.98 4.79 4.79 0 0 1-1.14-1.6c-.28-.64-.42-1.373-.42-2.2v-.24c0-.813.14-1.533.42-2.16.28-.64.66-1.18 1.14-1.62a4.94 4.94 0 0 1 1.64-1 5.72 5.72 0 0 1 1.96-.34 5.55 5.55 0 0 1 1.94.34 4.89 4.89 0 0 1 1.66 1c.48.44.86.98 1.14 1.62.28.627.42 1.347.42 2.16v.24zm-5.16 2.72a2.88 2.88 0 0 0 1.02-.18 2.47 2.47 0 0 0 .84-.52 2.36 2.36 0 0 0 .56-.82c.147-.333.22-.707.22-1.12v-.4c0-.413-.073-.78-.22-1.1a2.32 2.32 0 0 0-.56-.84 2.47 2.47 0 0 0-.84-.52 2.88 2.88 0 0 0-1.02-.18 2.88 2.88 0 0 0-1.02.18 2.47 2.47 0 0 0-.84.52c-.24.227-.433.507-.58.84-.133.32-.2.687-.2 1.1v.4a3 3 0 0 0 .2 1.12c.147.32.34.593.58.82a2.47 2.47 0 0 0 .84.52 2.88 2.88 0 0 0 1.02.18zm6.313-7.8h4.2v1.44h.36c.187-.547.5-.967.94-1.26.454-.307.994-.46 1.62-.46.987 0 1.78.313 2.38.94.6.613.9 1.553.9 2.82V37l-2.6.24v-.28c0-.547-.14-.98-.42-1.3-.28-.333-.7-.5-1.26-.5s-1 .193-1.32.58-.48.94-.48 1.66v3.2h2.28V43h-6.84v-2.4h2.04v-5.12h-1.8v-2.4zm14.054 5.78c.013.293.08.567.2.82a2.37 2.37 0 0 0 .52.64 3.01 3.01 0 0 0 .76.42c.293.093.6.14.92.14.626 0 1.106-.107 1.44-.32.333-.227.573-.493.72-.8l2.16 1.2c-.12.253-.287.52-.5.8a3.576 3.576 0 0 1-.84.74c-.334.227-.747.413-1.24.56-.48.147-1.047.22-1.7.22-.747 0-1.427-.12-2.04-.36s-1.147-.587-1.6-1.04a4.88 4.88 0 0 1-1.04-1.66c-.24-.653-.36-1.393-.36-2.22v-.12c0-.76.126-1.453.38-2.08a4.82 4.82 0 0 1 1.08-1.6c.453-.44.98-.78 1.58-1.02a5.08 5.08 0 0 1 1.96-.38c.853 0 1.586.153 2.2.46.613.293 1.12.673 1.52 1.14a4.37 4.37 0 0 1 .88 1.52c.186.547.28 1.08.28 1.6v1.34h-7.28zm2.38-3.78c-.64 0-1.16.167-1.56.5-.4.32-.66.693-.78 1.12h4.68c-.08-.467-.334-.853-.76-1.16-.414-.307-.94-.46-1.58-.46zM56.25 17.5h-2.38l-.34 1.5h-1.38l1.67-7h2.48l1.67 7h-1.38l-.34-1.5zm-2.1-1.26h1.81l-.81-3.58h-.18l-.82 3.58zm3.957-2.2h1.36l1.17 4.36h.18l1.17-4.36h1.36L61.927 19h-2.4l-1.42-4.96zm9.237 4.24c-.133.313-.32.537-.56.67a1.77 1.77 0 0 1-.84.19 2.15 2.15 0 0 1-.85-.17 2.01 2.01 0 0 1-.69-.5 2.51 2.51 0 0 1-.48-.8 3.14 3.14 0 0 1-.17-1.07v-.16a3.11 3.11 0 0 1 .17-1.06 2.47 2.47 0 0 1 .46-.8c.193-.22.417-.387.67-.5a1.96 1.96 0 0 1 .83-.18c.353 0 .637.06.85.18.22.12.393.307.52.56h.18v-.6h1.26v3.46c0 .2.09.3.27.3h.19V19h-.86a.8.8 0 0 1-.56-.2.686.686 0 0 1-.21-.52h-.18zm-1.12-.34c.367 0 .66-.12.88-.36.22-.247.33-.58.33-1v-.12c0-.42-.11-.75-.33-.99a1.12 1.12 0 0 0-.88-.37 1.12 1.12 0 0 0-.88.37c-.22.24-.33.57-.33.99v.12c0 .42.11.753.33 1 .22.24.513.36.88.36zm3.677-.14h1.68v-2.56h-1.56v-1.2h2.82v3.76h1.44V19H69.9v-1.2zm3.25-5.23a.93.93 0 0 1-.08.38.917.917 0 0 1-.2.3c-.087.08-.19.147-.31.2a.928.928 0 0 1-.36.07.96.96 0 0 1-.37-.07 1.18 1.18 0 0 1-.3-.2 1.053 1.053 0 0 1-.21-.3 1.04 1.04 0 0 1-.07-.38.96.96 0 0 1 .07-.37.89.89 0 0 1 .21-.3.91.91 0 0 1 .3-.2.86.86 0 0 1 .37-.08.84.84 0 0 1 .36.08.89.89 0 0 1 .31.2.79.79 0 0 1 .2.3.86.86 0 0 1 .08.37zm2.307 5.23h1.74v-4.6h-1.68V12h2.94v5.8h1.62V19h-4.62v-1.2zm8.917.48c-.133.313-.32.537-.56.67a1.77 1.77 0 0 1-.84.19 2.15 2.15 0 0 1-.85-.17 2.01 2.01 0 0 1-.69-.5 2.51 2.51 0 0 1-.48-.8 3.14 3.14 0 0 1-.17-1.07v-.16a3.11 3.11 0 0 1 .17-1.06 2.47 2.47 0 0 1 .46-.8 1.94 1.94 0 0 1 .67-.5 1.96 1.96 0 0 1 .83-.18c.353 0 .637.06.85.18.22.12.393.307.52.56h.18v-.6h1.26v3.46c0 .2.09.3.27.3h.19V19h-.86a.8.8 0 0 1-.56-.2.686.686 0 0 1-.21-.52h-.18zm-1.12-.34c.367 0 .66-.12.88-.36.22-.247.33-.58.33-1v-.12c0-.42-.11-.75-.33-.99a1.12 1.12 0 0 0-.88-.37 1.12 1.12 0 0 0-.88.37c-.22.24-.33.57-.33.99v.12c0 .42.11.753.33 1 .22.24.513.36.88.36zM87.89 19h-1.26v-7h1.26v2.76h.18a1.44 1.44 0 0 1 .58-.63c.253-.153.577-.23.97-.23a2.06 2.06 0 0 1 .83.17c.267.113.497.28.69.5.2.213.357.477.47.79.12.313.18.67.18 1.07v.18c0 .407-.057.767-.17 1.08a2.47 2.47 0 0 1-.46.8 1.95 1.95 0 0 1-.69.49 2.21 2.21 0 0 1-.85.16 2.19 2.19 0 0 1-.59-.07 1.665 1.665 0 0 1-.44-.19 1.53 1.53 0 0 1-.31-.27 2.5 2.5 0 0 1-.21-.33h-.18V19zm1.32-1.06c.393 0 .71-.12.95-.36.247-.247.37-.58.37-1v-.12c0-.42-.123-.75-.37-.99-.24-.247-.557-.37-.95-.37s-.713.127-.96.38c-.24.247-.36.573-.36.98v.12c0 .407.12.737.36.99.247.247.567.37.96.37zm3.277-.14h1.74v-4.6h-1.68V12h2.94v5.8h1.62V19h-4.62v-1.2zm6.817-.87a1.06 1.06 0 0 0 .1.41 1.19 1.19 0 0 0 .26.32 1.5 1.5 0 0 0 .38.21 1.51 1.51 0 0 0 .46.07c.313 0 .553-.053.72-.16.167-.113.287-.247.36-.4l1.08.6a2.26 2.26 0 0 1-.25.4 1.788 1.788 0 0 1-.42.37 2.228 2.228 0 0 1-.62.28c-.24.073-.523.11-.85.11a2.78 2.78 0 0 1-1.02-.18 2.3 2.3 0 0 1-.8-.52 2.447 2.447 0 0 1-.52-.83 3.207 3.207 0 0 1-.18-1.11v-.06c0-.38.063-.727.19-1.04.133-.313.313-.58.54-.8s.49-.39.79-.51a2.54 2.54 0 0 1 .98-.19c.427 0 .793.077 1.1.23.307.147.56.337.76.57a2.18 2.18 0 0 1 .44.76c.093.273.14.54.14.8v.67h-3.64zm1.19-1.89c-.32 0-.58.083-.78.25-.2.16-.33.347-.39.56h2.34a.885.885 0 0 0-.38-.58c-.207-.153-.47-.23-.79-.23zm13.913 1.54c0 .413-.07.78-.21 1.1a2.4 2.4 0 0 1-.57.8c-.24.213-.516.377-.83.49a2.78 2.78 0 0 1-.97.17 2.87 2.87 0 0 1-.98-.17 2.564 2.564 0 0 1-.82-.49 2.4 2.4 0 0 1-.57-.8c-.14-.32-.21-.687-.21-1.1v-.12c0-.407.07-.767.21-1.08.14-.32.33-.59.57-.81a2.47 2.47 0 0 1 .82-.5 2.87 2.87 0 0 1 .98-.17 2.78 2.78 0 0 1 .97.17 2.44 2.44 0 0 1 .83.5c.24.22.43.49.57.81.14.313.21.673.21 1.08v.12zm-2.58 1.36a1.44 1.44 0 0 0 .51-.09 1.24 1.24 0 0 0 .42-.26 1.17 1.17 0 0 0 .28-.41c.074-.167.11-.353.11-.56v-.2c0-.207-.036-.39-.11-.55a1.148 1.148 0 0 0-.28-.42 1.24 1.24 0 0 0-.42-.26 1.44 1.44 0 0 0-.51-.09 1.44 1.44 0 0 0-.51.09 1.24 1.24 0 0 0-.42.26 1.28 1.28 0 0 0-.29.42 1.43 1.43 0 0 0-.1.55v.2a1.51 1.51 0 0 0 .1.56 1.31 1.31 0 0 0 .29.41 1.24 1.24 0 0 0 .42.26 1.44 1.44 0 0 0 .51.09zm4.657 1.06h-1.26v-4.96h1.26v.74h.18a1.31 1.31 0 0 1 .55-.65c.253-.153.55-.23.89-.23a1.84 1.84 0 0 1 .67.12 1.45 1.45 0 0 1 .56.35c.16.16.283.363.37.61.093.247.14.54.14.88V19h-1.26v-2.82c0-.353-.087-.63-.26-.83-.167-.207-.41-.31-.73-.31-.374 0-.654.127-.84.38-.18.247-.27.58-.27 1V19zm9.953-4.96h1.47V12h1.26v2.04h1.79v1.2h-1.79v2.26c0 .2.09.3.27.3h1.34V19h-2.1a.757.757 0 0 1-.56-.22.778.778 0 0 1-.21-.56v-2.98h-1.47v-1.2zm7.097 4.96h-1.26v-7h1.26v2.84h.18c.126-.3.313-.53.56-.69.246-.167.55-.25.91-.25.246 0 .473.04.68.12a1.49 1.49 0 0 1 .54.36c.153.16.273.367.36.62a2.68 2.68 0 0 1 .13.88V19h-1.26v-2.82c0-.353-.087-.63-.26-.83-.167-.207-.41-.31-.73-.31-.374 0-.654.127-.84.38-.18.247-.27.58-.27 1V19zm5.506-2.07c.007.147.04.283.1.41a1.21 1.21 0 0 0 .26.32 1.51 1.51 0 0 0 .38.21 1.51 1.51 0 0 0 .46.07c.314 0 .554-.053.72-.16.167-.113.287-.247.36-.4l1.08.6a2.26 2.26 0 0 1-.25.4 1.75 1.75 0 0 1-.42.37 2.215 2.215 0 0 1-.62.28c-.24.073-.523.11-.85.11a2.78 2.78 0 0 1-1.02-.18 2.31 2.31 0 0 1-.8-.52 2.447 2.447 0 0 1-.52-.83 3.207 3.207 0 0 1-.18-1.11v-.06c0-.38.064-.727.19-1.04a2.44 2.44 0 0 1 .54-.8c.227-.22.49-.39.79-.51a2.54 2.54 0 0 1 .98-.19c.427 0 .794.077 1.1.23.307.147.56.337.76.57a2.18 2.18 0 0 1 .44.76 2.45 2.45 0 0 1 .14.8v.67h-3.64zm1.19-1.89c-.32 0-.58.083-.78.25-.2.16-.33.347-.39.56h2.34a.88.88 0 0 0-.38-.58c-.206-.153-.47-.23-.79-.23z"/></g><path fill="#495567" fill-rule="evenodd" d="M29.55 16.233c.988-1.206 2.683-2.133 4.133-2.233.243 1.649-.428 3.264-1.316 4.406-.949 1.227-2.586 2.175-4.17 2.126-.289-1.579.452-3.205 1.353-4.299zm4.466 4.301c1.93 0 3.974 1.044 5.428 2.843-4.768 2.594-3.995 9.352.822 11.161-.662 1.457-.98 2.107-1.834 3.398-1.191 1.801-2.869 4.044-4.952 4.06-.856.009-1.418-.247-2.023-.522-.702-.319-1.463-.666-2.81-.658-1.339.007-2.112.349-2.824.663-.621.275-1.195.529-2.059.521-2.081-.017-3.672-2.042-4.863-3.843-3.329-5.032-3.681-10.941-1.626-14.083 1.461-2.232 3.766-3.537 5.931-3.537 1.154 0 2.083.329 2.969.642.806.285 1.577.558 2.446.558.805 0 1.467-.249 2.188-.52.866-.325 1.818-.683 3.208-.683z"/><defs><clipPath id="a"><path fill="#fff" d="M52 8h91v39H52z"/></clipPath></defs></svg>