<svg xmlns="http://www.w3.org/2000/svg" width="182" height="56" fill="none" xmlns:v="https://vecta.io/nano"><rect width="182" height="56" rx="4" fill="#e5ecf4"/><g clip-path="url(#A)" fill="#495567"><path d="M57.2 35.92h6V43h-2.4v-1.56h-.36a2.66 2.66 0 0 1-.92 1.32c-.453.347-1.133.52-2.04.52a4.52 4.52 0 0 1-1.8-.36 4.07 4.07 0 0 1-1.46-1.06c-.413-.48-.74-1.067-.98-1.76-.24-.707-.36-1.527-.36-2.46v-3.28c0-.907.127-1.707.38-2.4.267-.707.627-1.3 1.08-1.78A4.48 4.48 0 0 1 56 29.1c.64-.253 1.347-.38 2.12-.38.8 0 1.513.133 2.14.4.627.253 1.16.613 1.6 1.08a4.48 4.48 0 0 1 1 1.62c.227.613.34 1.273.34 1.98v.24h-2.64v-.24c0-.84-.22-1.473-.66-1.9-.427-.44-1.033-.66-1.82-.66-.747 0-1.36.253-1.84.76-.48.493-.72 1.347-.72 2.56v2.96c0 2.16.88 3.24 2.64 3.24.787 0 1.38-.207 1.78-.62.413-.427.62-.993.62-1.7H57.2v-2.52zm17.433 2.24c0 .827-.14 1.56-.42 2.2a4.79 4.79 0 0 1-1.14 1.6 5.06 5.06 0 0 1-1.66.98 5.55 5.55 0 0 1-1.94.34 5.71 5.71 0 0 1-1.96-.34c-.613-.227-1.16-.553-1.64-.98a4.79 4.79 0 0 1-1.14-1.6c-.28-.64-.42-1.373-.42-2.2v-.24c0-.813.14-1.533.42-2.16.28-.64.66-1.18 1.14-1.62s1.027-.773 1.64-1a5.71 5.71 0 0 1 1.96-.34 5.55 5.55 0 0 1 1.94.34c.627.227 1.18.56 1.66 1s.86.98 1.14 1.62c.28.627.42 1.347.42 2.16v.24zm-5.16 2.72a2.88 2.88 0 0 0 1.02-.18 2.47 2.47 0 0 0 .84-.52 2.36 2.36 0 0 0 .56-.82c.147-.333.22-.707.22-1.12v-.4c0-.413-.073-.78-.22-1.1-.133-.333-.32-.613-.56-.84a2.47 2.47 0 0 0-.84-.52 2.88 2.88 0 0 0-1.02-.18 2.88 2.88 0 0 0-1.02.18 2.47 2.47 0 0 0-.84.52c-.24.227-.433.507-.58.84a2.84 2.84 0 0 0-.2 1.1v.4a3 3 0 0 0 .2 1.12 2.61 2.61 0 0 0 .58.82 2.47 2.47 0 0 0 .84.52 2.88 2.88 0 0 0 1.02.18zm16.513-2.72c0 .827-.14 1.56-.42 2.2a4.79 4.79 0 0 1-1.14 1.6 5.06 5.06 0 0 1-1.66.98 5.55 5.55 0 0 1-1.94.34 5.71 5.71 0 0 1-1.96-.34 5.11 5.11 0 0 1-1.64-.98 4.79 4.79 0 0 1-1.14-1.6c-.28-.64-.42-1.373-.42-2.2v-.24c0-.813.14-1.533.42-2.16.28-.64.66-1.18 1.14-1.62s1.027-.773 1.64-1a5.71 5.71 0 0 1 1.96-.34 5.55 5.55 0 0 1 1.94.34c.627.227 1.18.56 1.66 1s.86.98 1.14 1.62c.28.627.42 1.347.42 2.16v.24zm-5.16 2.72a2.88 2.88 0 0 0 1.02-.18 2.47 2.47 0 0 0 .84-.52 2.36 2.36 0 0 0 .56-.82c.147-.333.22-.707.22-1.12v-.4c0-.413-.073-.78-.22-1.1-.133-.333-.32-.613-.56-.84a2.47 2.47 0 0 0-.84-.52 2.88 2.88 0 0 0-1.02-.18 2.88 2.88 0 0 0-1.02.18 2.47 2.47 0 0 0-.84.52 2.55 2.55 0 0 0-.58.84c-.133.32-.2.687-.2 1.1v.4a3 3 0 0 0 .2 1.12c.147.32.34.593.58.82a2.47 2.47 0 0 0 .84.52 2.88 2.88 0 0 0 1.02.18zm13.873.68h-.36a3.79 3.79 0 0 1-.4.66c-.147.2-.347.38-.6.54-.24.16-.533.287-.88.38-.333.093-.74.14-1.22.14a4.59 4.59 0 0 1-1.72-.32 4.15 4.15 0 0 1-1.38-.98c-.387-.44-.693-.973-.92-1.6-.213-.627-.32-1.347-.32-2.16v-.36c0-.8.113-1.513.34-2.14.24-.627.56-1.153.96-1.58a4.18 4.18 0 0 1 1.42-1 4.44 4.44 0 0 1 1.72-.34c.8 0 1.433.153 1.9.46.467.293.833.713 1.1 1.26h.36v-1.44h2.52v12.36c0 .453-.147.827-.44 1.12-.28.293-.647.44-1.1.44H89v-2.4h5.16c.36 0 .54-.2.54-.6v-2.44zm-2.64-.68c.787 0 1.42-.247 1.9-.74.493-.507.74-1.167.74-1.98v-.24c0-.813-.247-1.467-.74-1.96-.48-.507-1.113-.76-1.9-.76s-1.427.247-1.92.74c-.48.48-.72 1.14-.72 1.98v.24c0 .84.24 1.507.72 2 .493.48 1.133.72 1.92.72zm6.853-.28h3.48v-9.2h-3.36V29h5.88v11.6h3.24V43h-9.24v-2.4zm13.633-1.74c.014.293.08.567.2.82a2.41 2.41 0 0 0 .52.64 3.01 3.01 0 0 0 .76.42 3.02 3.02 0 0 0 .92.14c.627 0 1.107-.107 1.44-.32.334-.227.574-.493.72-.8l2.16 1.2c-.12.253-.286.52-.5.8-.213.267-.493.513-.84.74-.333.227-.746.413-1.24.56-.48.147-1.046.22-1.7.22-.746 0-1.426-.12-2.04-.36a4.62 4.62 0 0 1-1.6-1.04c-.44-.453-.786-1.007-1.04-1.66-.24-.653-.36-1.393-.36-2.22v-.12c0-.76.127-1.453.38-2.08a4.85 4.85 0 0 1 1.08-1.6c.454-.44.98-.78 1.58-1.02.614-.253 1.267-.38 1.96-.38.854 0 1.587.153 2.2.46.614.293 1.12.673 1.52 1.14a4.35 4.35 0 0 1 .88 1.52c.187.547.28 1.08.28 1.6v1.34h-7.28zm2.38-3.78c-.64 0-1.16.167-1.56.5-.4.32-.66.693-.78 1.12h4.68c-.08-.467-.333-.853-.76-1.16-.413-.307-.94-.46-1.58-.46zm9.273 2.64V43h-2.64V29h5.48c.72 0 1.347.12 1.88.36.534.227.974.533 1.32.92.36.373.627.807.8 1.3a4.04 4.04 0 0 1 .28 1.48v.48c0 .52-.093 1.033-.28 1.54-.173.493-.44.94-.8 1.34-.346.387-.786.7-1.32.94s-1.16.36-1.88.36h-2.84zm0-2.52h2.58c.587 0 1.047-.16 1.38-.48.347-.32.52-.733.52-1.24v-.24c0-.507-.173-.92-.52-1.24-.333-.32-.793-.48-1.38-.48h-2.58v3.68zm8.774 5.4h3.48v-9.2h-3.36V29h5.88v11.6h3.24V43h-9.24v-2.4zm17.833.96c-.267.627-.64 1.073-1.12 1.34-.48.253-1.04.38-1.68.38a4.3 4.3 0 0 1-1.7-.34 4.03 4.03 0 0 1-1.38-1c-.4-.44-.72-.973-.96-1.6-.227-.627-.34-1.34-.34-2.14v-.32c0-.787.113-1.493.34-2.12s.533-1.16.92-1.6.833-.773 1.34-1c.52-.24 1.073-.36 1.66-.36.707 0 1.273.12 1.7.36.44.24.787.613 1.04 1.12h.36v-1.2h2.52V40c0 .4.18.6.54.6h.38V43h-1.72c-.453 0-.827-.133-1.12-.4-.28-.267-.42-.613-.42-1.04h-.36zm-2.24-.68c.733 0 1.32-.24 1.76-.72.44-.493.66-1.16.66-2v-.24c0-.84-.22-1.5-.66-1.98-.44-.493-1.027-.74-1.76-.74s-1.32.247-1.76.74c-.44.48-.66 1.14-.66 1.98v.24c0 .84.22 1.507.66 2 .44.48 1.027.72 1.76.72zm13.893-7.8h2.52v12.36c0 .453-.147.827-.44 1.12-.28.293-.647.44-1.1.44h-5.9v-2.4h4.38c.36 0 .54-.2.54-.6v-2.44h-.36c-.44 1.147-1.387 1.72-2.84 1.72a3.9 3.9 0 0 1-1.38-.24 2.99 2.99 0 0 1-1.12-.74c-.32-.333-.573-.747-.76-1.24-.173-.507-.26-1.1-.26-1.78v-6.2h2.52v5.68c0 .707.167 1.26.5 1.66.333.387.833.58 1.5.58.76 0 1.313-.24 1.66-.72.36-.493.54-1.16.54-2v-5.2zM54.6 15.46h3V19h-1.2v-.78h-.18a1.33 1.33 0 0 1-.46.66c-.227.173-.567.26-1.02.26a2.26 2.26 0 0 1-.9-.18 2.04 2.04 0 0 1-.73-.53 2.67 2.67 0 0 1-.49-.88c-.12-.353-.18-.763-.18-1.23v-1.64c0-.453.063-.853.19-1.2.133-.353.313-.65.54-.89a2.24 2.24 0 0 1 .83-.54c.32-.127.673-.19 1.06-.19a2.71 2.71 0 0 1 1.07.2c.313.127.58.307.8.54a2.24 2.24 0 0 1 .5.81c.113.307.17.637.17.99v.12h-1.32v-.12c0-.42-.11-.737-.33-.95-.213-.22-.517-.33-.91-.33a1.21 1.21 0 0 0-.92.38c-.24.247-.36.673-.36 1.28v1.48c0 1.08.44 1.62 1.32 1.62.393 0 .69-.103.89-.31.207-.213.31-.497.31-.85H54.6v-1.26zm4.967 1.47a1.06 1.06 0 0 0 .1.41 1.19 1.19 0 0 0 .26.32 1.5 1.5 0 0 0 .38.21 1.5 1.5 0 0 0 .46.07c.313 0 .553-.053.72-.16a1.02 1.02 0 0 0 .36-.4l1.08.6a2.25 2.25 0 0 1-.25.4c-.107.133-.247.257-.42.37-.167.113-.373.207-.62.28-.24.073-.523.11-.85.11a2.78 2.78 0 0 1-1.02-.18 2.3 2.3 0 0 1-.8-.52c-.22-.227-.393-.503-.52-.83-.12-.327-.18-.697-.18-1.11v-.06c0-.38.063-.727.19-1.04.133-.313.313-.58.54-.8s.49-.39.79-.51a2.54 2.54 0 0 1 .98-.19c.427 0 .793.077 1.1.23a2.28 2.28 0 0 1 .76.57 2.18 2.18 0 0 1 .44.76c.093.273.14.54.14.8v.67h-3.64zm1.19-1.89c-.32 0-.58.083-.78.25-.2.16-.33.347-.39.56h2.34c-.04-.233-.167-.427-.38-.58-.207-.153-.47-.23-.79-.23zm3.237-1h1.47V12h1.26v2.04h1.79v1.2h-1.79v2.26c0 .2.09.3.27.3h1.34V19h-2.1c-.227 0-.413-.073-.56-.22-.14-.147-.21-.333-.21-.56v-2.98h-1.47v-1.2zm11.583 3.76h1.68v-2.56h-1.56v-1.2h2.82v3.76h1.44V19h-4.38v-1.2zm3.25-5.23a.93.93 0 0 1-.08.38c-.047.113-.113.213-.2.3-.087.08-.19.147-.31.2-.113.047-.233.07-.36.07a.96.96 0 0 1-.37-.07 1.18 1.18 0 0 1-.3-.2c-.087-.087-.157-.187-.21-.3a1.04 1.04 0 0 1-.07-.38.96.96 0 0 1 .07-.37.89.89 0 0 1 .21-.3.91.91 0 0 1 .3-.2.86.86 0 0 1 .37-.08.84.84 0 0 1 .36.08.89.89 0 0 1 .31.2.79.79 0 0 1 .2.3.86.86 0 0 1 .08.37zm2.197 1.47h1.47V12h1.26v2.04h1.79v1.2h-1.79v2.26c0 .2.09.3.27.3h1.34V19h-2.1c-.227 0-.413-.073-.56-.22-.14-.147-.21-.333-.21-.56v-2.98h-1.47v-1.2zm16.353 2.54c0 .413-.07.78-.21 1.1a2.4 2.4 0 0 1-.57.8 2.53 2.53 0 0 1-.83.49c-.307.113-.63.17-.97.17a2.86 2.86 0 0 1-.98-.17c-.307-.113-.58-.277-.82-.49a2.4 2.4 0 0 1-.57-.8c-.14-.32-.21-.687-.21-1.1v-.12c0-.407.07-.767.21-1.08.14-.32.33-.59.57-.81a2.47 2.47 0 0 1 .82-.5 2.86 2.86 0 0 1 .98-.17c.34 0 .663.057.97.17.313.113.59.28.83.5s.43.49.57.81c.14.313.21.673.21 1.08v.12zm-2.58 1.36a1.44 1.44 0 0 0 .51-.09 1.24 1.24 0 0 0 .42-.26 1.18 1.18 0 0 0 .28-.41 1.38 1.38 0 0 0 .11-.56v-.2a1.31 1.31 0 0 0-.11-.55 1.16 1.16 0 0 0-.28-.42 1.24 1.24 0 0 0-.42-.26 1.44 1.44 0 0 0-.51-.09 1.44 1.44 0 0 0-.51.09 1.24 1.24 0 0 0-.42.26c-.12.113-.217.253-.29.42a1.42 1.42 0 0 0-.1.55v.2a1.49 1.49 0 0 0 .1.56c.073.16.17.297.29.41a1.24 1.24 0 0 0 .42.26 1.44 1.44 0 0 0 .51.09zM99.453 19h-1.26v-4.96h1.26v.74h.18c.113-.28.297-.497.55-.65s.55-.23.89-.23a1.84 1.84 0 0 1 .67.12 1.45 1.45 0 0 1 .56.35c.16.16.283.363.37.61.093.247.14.54.14.88V19h-1.26v-2.82c0-.353-.087-.63-.26-.83-.167-.207-.41-.31-.73-.31-.373 0-.653.127-.84.38-.18.247-.27.58-.27 1V19z"/></g><path fill-rule="evenodd" d="M17.352 14.237c.725-.349 1.556-.312 2.253.108l13.872 8.078-3.973 3.992-12.152-12.178zM16 16.421c0-.372.082-.733.236-1.057l12.149 12.175-12.147 12.205A2.38 2.38 0 0 1 16 38.697V16.421zm13.506 12.241l-12.132 12.19a2.38 2.38 0 0 0 1.007.214c.422 0 .844-.101 1.225-.33l13.875-8.09-3.974-3.983zm9.24-3.171c.731.444 1.159 1.204 1.159 2.042a2.36 2.36 0 0 1-1.144 2.034l-3.864 2.252-4.272-4.281 4.27-4.29 3.852 2.243z" fill="#495567"/><defs><clipPath id="A"><path fill="#fff" transform="translate(52 8)" d="M0 0h114v39H0z"/></clipPath></defs></svg>