<svg xmlns="http://www.w3.org/2000/svg" height="800" width="1200" viewBox="-7.137 -10.5 61.857 63" xmlns:v="https://vecta.io/nano"><path d="M21 42c11.563 0 21-9.37 21-21C42 9.437 32.63 0 21 0 9.437 0 0 9.37 0 21a20.96 20.96 0 0 0 21 21" fill="#ffe900"/><g fill="#1d1d1b"><path d="M40.937 19.937l1.994-.532 1.595 6.513 3.057-.731-.066-1.794-.864.199-1.196-4.785 2.127-.532-.532-2.392-2.126.532-.665-2.658-2.326 1.595.399 1.661-1.994.532.532 2.392"/><path d="M40.604 17.744c-.797-.797-1.927-1.329-3.389-1.329-3.19 0-4.718 2.525-4.718 4.652s1.529 4.652 4.718 4.652 4.718-2.525 4.718-4.652c0-.93-.266-1.861-.797-2.658zm-1.329 3.323c0 1.263-.931 2.193-2.127 2.193-1.13 0-2.126-.93-2.126-2.193s.93-2.193 2.127-2.193 2.127.93 2.127 2.193m-6.845 0c0-2.127-1.528-4.652-4.718-4.652s-4.718 2.525-4.718 4.652 1.529 4.652 4.718 4.652 4.718-2.525 4.718-4.652m-2.592 0c0 1.263-.93 2.193-2.127 2.193-1.13 0-2.127-.93-2.127-2.193s.93-2.193 2.127-2.193c1.13 0 2.127.93 2.127 2.193m-9.437-.997h2.658c-.465-2.127-2.326-3.655-4.652-3.655-2.592 0-4.585 2.06-4.585 4.652a4.62 4.62 0 0 0 4.652 4.652c2.392 0 4.12-1.595 4.585-3.589h-2.658c-.266.532-.797 1.196-1.861 1.196-1.263 0-2.06-.93-2.06-2.193 0-.598.199-1.196.598-1.595s.93-.665 1.529-.598c.93-.133 1.462.532 1.794 1.13m-9.37-.93h2.592c-.199-2.326-2.193-2.725-3.389-2.725-1.794 0-3.389 1.13-3.389 2.991 0 1.196.93 1.927 2.06 2.259 1.661.665 2.326.731 2.326 1.329 0 .399-.465.665-.931.665-.133 0-.864 0-.997-.797H6.712c.266 2.326 2.259 2.924 3.589 2.924 1.927 0 3.589-1.13 3.589-3.057 0-1.861-1.595-2.326-3.057-2.725-.665-.199-1.329-.465-1.329-.864 0-.266.199-.598.731-.598.731-.067.797.399.797.598"/></g></svg>